<svg id="ab3d4749-3fca-4b08-b1fa-593804185b99" data-name="Layer 1" xmlns="http://www.w3.org/2000/svg" width="127.72" height="27.75" viewBox="0 0 127.72 27.75">
  <g>
    <path d="M45.64,12.8,33.09,25.57h0a2.75,2.75,0,0,1-.69.43,3,3,0,0,1-2,0,2.58,2.58,0,0,1-.69-.43h0l-13.91-14,.57-.57v0a2.78,2.78,0,0,1,1.7-.87,1.65,1.65,0,0,1,1,.26h0l8.3,8.4,0,0a3.47,3.47,0,0,0,2.58,1.11,4.59,4.59,0,0,0,3-1.48l9.17-9.16-7.58-8a3.45,3.45,0,0,0-2.63-1,5.27,5.27,0,0,0-2.77.6A4,4,0,0,0,27,.13a5.33,5.33,0,0,0-2.78.6A3.93,3.93,0,0,0,22.1.13,5.09,5.09,0,0,0,19.22.8,3.86,3.86,0,0,0,17,.13h-.68a3.45,3.45,0,0,0-2.63,1L1.14,13.93,2.4,15.2,15,2.43h0A2.75,2.75,0,0,1,15.63,2a3.59,3.59,0,0,1,1-.18,3.59,3.59,0,0,1,1,.18,2.75,2.75,0,0,1,.69.43h0l13.9,14.05-.57.57v0a2.75,2.75,0,0,1-1.69.87,2.39,2.39,0,0,1-1.72-.87v0L21,9.69a3.66,3.66,0,0,0-2.91-1.48,4.59,4.59,0,0,0-3,1.48L5.93,18.85l7.58,8a3.43,3.43,0,0,0,2.63,1,5.29,5.29,0,0,0,2.77-.6,3.93,3.93,0,0,0,2.13.6,5.29,5.29,0,0,0,2.77-.6,4,4,0,0,0,2.13.6,5.09,5.09,0,0,0,2.88-.67,3.88,3.88,0,0,0,2.23.67h.68a3.43,3.43,0,0,0,2.63-1L46.9,14.07Zm-13.81-11a2.5,2.5,0,0,1,1.45.6h0l1.46,1.46.2.21,4.8,4.83-1.19,1.21L30.48,2A3.13,3.13,0,0,1,31.83,1.82Zm-4.9,0a2.45,2.45,0,0,1,1.44.6h0l1.45,1.46L30,4.1l7.25,7.31-1.19,1.2L25.57,2A3.2,3.2,0,0,1,26.93,1.82Zm-6.41.26A3.14,3.14,0,0,1,22,1.82a2.48,2.48,0,0,1,1.45.6h0l1.45,1.46.21.21,9.7,9.78-1.31,1.33Zm-4.31,24.1a2.45,2.45,0,0,1-1.44-.6h0l-1.45-1.46-.21-.21L8.33,19.06l1.18-1.2L17.57,26A3.2,3.2,0,0,1,16.21,26.18Zm4.91,0a2.48,2.48,0,0,1-1.45-.6h0l-1.45-1.46L18,23.9l-7.25-7.31L12,15.39,22.47,26A3.15,3.15,0,0,1,21.12,26.18Zm4.9,0a2.5,2.5,0,0,1-1.45-.6h0l-1.46-1.46-.2-.21-9.71-9.78,1.31-1.33,13,13.13A3.12,3.12,0,0,1,26,26.18Z" transform="translate(-1.14 -0.13)" style="fill: #0082ca"/>
    <path d="M54.14,10.74h0s-.05,0-.05-.06a.06.06,0,0,1,.05-.06h.15a1,1,0,0,0,.85-.95V9.31a1,1,0,0,0-1-1H50.27a0,0,0,0,0,0,.05V9a0,0,0,0,0,0,.05l.06,0c.18,0,.46.16.46.28v3c0,.13-.26.25-.47.29a.15.15,0,0,0-.06,0,.1.1,0,0,0,0,.07v.59a0,0,0,0,0,0,0h3.87a1.24,1.24,0,0,0,1.16-1.2v-.5C55.3,11.17,55,10.74,54.14,10.74ZM54,11.92c0,.5-.3.65-.72.65H52.1a.06.06,0,0,1,0-.05V9.26s0-.06,0-.07a.1.1,0,0,1,.06,0h1.11a.48.48,0,0,1,.48.44v.28c0,.14-.2.5-.49.48h-.5a.16.16,0,0,0-.16.15v.55a.16.16,0,0,0,.16.15h.56c.54,0,.67.34.67.47Z" transform="translate(-1.14 -0.13)"/>
    <path d="M123.25,10.74h0a.05.05,0,0,1-.06-.06.06.06,0,0,1,.06-.06h.14a1,1,0,0,0,.85-.95V9.31a1,1,0,0,0-1-1h-3.86a0,0,0,0,0,0,.05V9a0,0,0,0,0,0,.05l.06,0c.18,0,.46.16.46.28v3c0,.13-.26.25-.47.29l-.06,0a.1.1,0,0,0,0,.07v.59a0,0,0,0,0,0,0h3.86a1.24,1.24,0,0,0,1.16-1.2v-.5C124.41,11.17,124.11,10.74,123.25,10.74Zm-.16,1.18c0,.5-.3.65-.71.65h-1.17a.06.06,0,0,1,0-.05V9.26s0-.06,0-.07a.1.1,0,0,1,.06,0h1.12a.49.49,0,0,1,.48.44v.28c0,.14-.21.5-.49.48h-.51a.16.16,0,0,0-.16.15v.55a.16.16,0,0,0,.16.15h.57c.53,0,.66.34.66.47Z" transform="translate(-1.14 -0.13)"/>
    <path d="M65.63,8.34H64.09c-.14,0-.16,0-.16.16v.36c0,.08.14.05.14.05A.16.16,0,0,1,64.2,9l0,.06a.42.42,0,0,1-.06.23c-.07.13-.39.66-.53.88a.19.19,0,0,1-.18.11h0a.17.17,0,0,1-.15-.11l-.58-.84a.42.42,0,0,1,0-.34c0-.06.15-.08.18-.08s.1,0,.1-.13v-.3c0-.05,0-.12-.1-.12h-2c-.08,0-.15,0-.15.1v.39c0,.15,0,.18.08.18a.7.7,0,0,1,.36.18l1.38,2v1.33c0,.06-.16.11-.27.13l-.13,0a0,0,0,0,0,0,0h0v.66h0a0,0,0,0,0,0,0h2.16s0,0,.05,0h0v-.66h0s0,0-.05,0h0c-.17,0-.4-.13-.41-.21V11.28L65,9.53l.26-.33a.44.44,0,0,1,.21-.15l.17,0c.13,0,.13,0,.13-.13V8.5C65.79,8.35,65.75,8.34,65.63,8.34Z" transform="translate(-1.14 -0.13)"/>
    <path d="M113.72,12.59V11.54a.16.16,0,0,0-.16-.16h-.4a.16.16,0,0,0-.15.16v.2a.83.83,0,0,1-.07.27,1.06,1.06,0,0,1-.47.42,1.47,1.47,0,0,1-.58.07h-.53a.19.19,0,0,1-.1-.13v-3c0-.12.27-.24.48-.27,0,0,0,0,.05,0a.05.05,0,0,0,0-.05V8.4a.05.05,0,0,0,0-.05h-2.08a0,0,0,0,0,0,.05V9s0,0,0,.05a.08.08,0,0,0,0,0c.21,0,.49.15.49.27v3c0,.12-.28.24-.49.27a.08.08,0,0,0,0,0s0,.05,0,.05v.61a0,0,0,0,0,0,0h3.91a.16.16,0,0,0,.16-.16v-.55A.14.14,0,0,0,113.72,12.59Z" transform="translate(-1.14 -0.13)"/>
    <path d="M97.84,12.59V11.54a.16.16,0,0,0-.15-.16h-.41a.16.16,0,0,0-.15.16v.2a.83.83,0,0,1-.07.27,1.1,1.1,0,0,1-.46.42,1.53,1.53,0,0,1-.59.07h-.53a.19.19,0,0,1-.1-.13v-3c0-.12.27-.24.49-.27,0,0,0,0,0,0a.05.05,0,0,0,0-.05V8.41a0,0,0,0,0,0-.05H93.79a0,0,0,0,0-.05.05V9a.05.05,0,0,0,0,.05s0,0,0,0c.22,0,.49.15.49.27v3c0,.12-.27.24-.49.27,0,0,0,0,0,0a.05.05,0,0,0,0,.05v.61a0,0,0,0,0,.05,0H97.7a.16.16,0,0,0,.16-.16v-.55A.14.14,0,0,0,97.84,12.59Z" transform="translate(-1.14 -0.13)"/>
    <path d="M116.28,12.56l-.51,0a.63.63,0,0,1-.42-.26,2.21,2.21,0,0,1,0-.68V9.35c0-.12.28-.24.49-.27a.08.08,0,0,0,0,0,.13.13,0,0,0,0-.05V8.4a0,0,0,0,0,0-.05h-2.29a0,0,0,0,0,0,.05V9a.13.13,0,0,0,0,.05.08.08,0,0,0,0,0c.21,0,.49.15.49.27v2.14h0v.44a2.62,2.62,0,0,0,.11.82c.28.45.72.7,2,.7h.26c1.29,0,1.79-.25,2.07-.7a2.35,2.35,0,0,0,.11-.82v-.44h0V9.35c0-.12.27-.24.48-.27,0,0,0,0,0,0a.05.05,0,0,0,0-.05V8.4a0,0,0,0,0,0-.05h-2.28a0,0,0,0,0,0,.05V9a.05.05,0,0,0,0,.05s0,0,0,0c.21,0,.49.15.49.27V11.6a2.57,2.57,0,0,1,0,.68.66.66,0,0,1-.42.26l-.52,0" transform="translate(-1.14 -0.13)"/>
    <path d="M109.3,12a.16.16,0,0,0-.16-.16h-.4a.16.16,0,0,0-.16.16v0a.78.78,0,0,1-.43.54,1.51,1.51,0,0,1-.71.12h0a1.51,1.51,0,0,1-.71-.12,1.25,1.25,0,0,1-.52-.58,3,3,0,0,1-.15-1.16,2.92,2.92,0,0,1,.15-1.25,1.09,1.09,0,0,1,1-.53c.61,0,.84.22.94.37a.49.49,0,0,1,.18.32v.06a.15.15,0,0,0,.15.15h.41a.15.15,0,0,0,.15-.15l0-1.21a.18.18,0,0,0-.09-.17,5.57,5.57,0,0,0-1.56-.17,3.89,3.89,0,0,0-1.81.39,2.39,2.39,0,0,0-1,2.11c0,1.28.28,1.74.62,2.06a2.52,2.52,0,0,0,1.55.65,1.83,1.83,0,0,0,.44,0h.17a3.48,3.48,0,0,0,.47,0,4.27,4.27,0,0,0,1.26-.15.16.16,0,0,0,.16-.16Z" transform="translate(-1.14 -0.13)"/>
    <path d="M85,12V10.72a.16.16,0,0,0-.16-.15H83a.16.16,0,0,0-.16.15v.53a.16.16,0,0,0,.16.15h.7v1.11l-.1.05a1.51,1.51,0,0,1-.71.12h0a1.53,1.53,0,0,1-.72-.12,1.3,1.3,0,0,1-.52-.58,3.13,3.13,0,0,1-.14-1.16,3,3,0,0,1,.14-1.25,1.11,1.11,0,0,1,1-.53,1,1,0,0,1,1,.37.49.49,0,0,1,.17.32v.06a.16.16,0,0,0,.16.15h.4a.16.16,0,0,0,.16-.15V8.58a.18.18,0,0,0-.08-.17,5.66,5.66,0,0,0-1.56-.17,3.83,3.83,0,0,0-1.81.39,2.39,2.39,0,0,0-1,2.11c0,1.28.28,1.74.62,2.06a2.52,2.52,0,0,0,1.55.65,1.73,1.73,0,0,0,.43,0h.18a3.52,3.52,0,0,0,.47,0,8.63,8.63,0,0,0,1.48-.15.16.16,0,0,0,.16-.16V12Z" transform="translate(-1.14 -0.13)"/>
    <path d="M60,8.63a3.61,3.61,0,0,0-1.71-.39h-.14a3.58,3.58,0,0,0-1.71.39,2.39,2.39,0,0,0-1,2.11c0,1.28.29,1.74.63,2.06a2.52,2.52,0,0,0,1.55.65,1.66,1.66,0,0,0,.43,0h.23a4.55,4.55,0,0,0,.52,0,2.52,2.52,0,0,0,1.55-.65c.34-.32.62-.78.62-2.06A2.39,2.39,0,0,0,60,8.63ZM59.43,12a1.2,1.2,0,0,1-.52.58,1.42,1.42,0,0,1-.69.12,1.49,1.49,0,0,1-.7-.12A1.3,1.3,0,0,1,57,12a3.13,3.13,0,0,1-.14-1.16A3,3,0,0,1,57,9.57,1.11,1.11,0,0,1,58,9h.35a1,1,0,0,1,1,.53,2.76,2.76,0,0,1,.15,1.25A2.83,2.83,0,0,1,59.43,12Z" transform="translate(-1.14 -0.13)"/>
    <path d="M53.63,16.57a2.86,2.86,0,0,0-1.32-.29h-.1a2.86,2.86,0,0,0-1.32.29,1.86,1.86,0,0,0-.76,1.63c0,1,.22,1.34.48,1.59a2,2,0,0,0,1.2.5,1.25,1.25,0,0,0,.33,0h.24a1.25,1.25,0,0,0,.33,0,2,2,0,0,0,1.2-.5c.26-.25.48-.61.48-1.59A1.86,1.86,0,0,0,53.63,16.57Zm-.43,2.58a1,1,0,0,1-.4.45,1.67,1.67,0,0,1-1.08,0,1,1,0,0,1-.4-.45,2.28,2.28,0,0,1-.11-.89,2.27,2.27,0,0,1,.11-1,.86.86,0,0,1,.81-.41h.26a.86.86,0,0,1,.81.41,2.27,2.27,0,0,1,.11,1A2.51,2.51,0,0,1,53.2,19.15Z" transform="translate(-1.14 -0.13)"/>
    <path d="M87.71,12.66s0,0,0,0c-.22,0-.49-.15-.49-.27v-3c0-.11.27-.24.49-.27,0,0,0,0,0,0a.05.05,0,0,0,0-.05V8.41a0,0,0,0,0,0-.05H85.59a0,0,0,0,0,0,.05V9a.05.05,0,0,0,0,.05s0,0,0,0c.21,0,.48.16.48.27v3c0,.12-.27.24-.48.27,0,0,0,0,0,0a.05.05,0,0,0,0,.05v.61a0,0,0,0,0,0,0h2.08a0,0,0,0,0,0,0v-.61A.05.05,0,0,0,87.71,12.66Z" transform="translate(-1.14 -0.13)"/>
    <path d="M78.15,19.63h0c-.16,0-.37-.12-.37-.21V17.1c0-.1.21-.19.37-.22h0a.1.1,0,0,0,0,0v-.47a0,0,0,0,0,0,0H76.51s0,0,0,0v.47s0,0,0,0h0c.16,0,.37.12.37.22v2.31c0,.09-.21.18-.37.21h0s0,0,0,0v.47s0,0,0,0h1.61a0,0,0,0,0,0,0v-.47A.1.1,0,0,0,78.15,19.63Z" transform="translate(-1.14 -0.13)"/>
    <path d="M93.51,12.66s-.05,0-.05,0c-.21,0-.48-.15-.48-.27v-.69c0-.53-.14-1-1-1h0a.05.05,0,0,1-.06-.06s0-.05.06-.05h.14a1,1,0,0,0,.85-1V9.32a1,1,0,0,0-1-1H88.12a0,0,0,0,0-.05.05V9a.05.05,0,0,0,0,.05s0,0,0,0c.22,0,.49.16.49.27v3c0,.12-.27.24-.49.27,0,0,0,0,0,0a.05.05,0,0,0,0,.05v.61a0,0,0,0,0,.05,0H90.2a0,0,0,0,0,0,0v-.61a.05.05,0,0,0,0-.05s0,0,0,0c-.22,0-.49-.15-.49-.27v-3c0-.06.08-.12.19-.18h1.2a.48.48,0,0,1,.48.44v.22c0,.13-.21.53-.49.51h-.74a.16.16,0,0,0-.16.15v.55a.16.16,0,0,0,.16.15h.8c.53,0,.5.34.51.47v1.41a.64.64,0,0,0,0,.16c0,.1.22.12.22.12h1.58a0,0,0,0,0,0,0v-.61A.05.05,0,0,0,93.51,12.66Z" transform="translate(-1.14 -0.13)"/>
    <path d="M76.25,19.64s0,0,0,0c-.16,0-.37-.12-.37-.21v-.53c0-.41-.12-.74-.78-.74h0a0,0,0,0,1-.05,0A0,0,0,0,1,75,18h.11a.76.76,0,0,0,.65-.76v-.22a.74.74,0,0,0-.74-.74h-3s0,0,0,0v.47a0,0,0,0,0,0,0l0,0c.16,0,.38.12.38.21v2.31c0,.09-.22.18-.38.21a.06.06,0,0,0,0,0s0,0,0,0v.47a0,0,0,0,0,0,0h1.6a0,0,0,0,0,0,0v-.47a0,0,0,0,0,0,0,0,0,0,0,0,0,0c-.17,0-.38-.12-.38-.21V17.1c0-.05.06-.1.15-.14h.92a.37.37,0,0,1,.37.33v.17c0,.1-.16.41-.38.4h-.57a.13.13,0,0,0-.12.12v.42a.12.12,0,0,0,.12.12h.62c.41,0,.39.26.39.36V20s0,.09,0,.13.17.09.17.09h1.22s0,0,0,0v-.47A0,0,0,0,0,76.25,19.64Z" transform="translate(-1.14 -0.13)"/>
    <path d="M66.69,11a11.67,11.67,0,0,0,1.6.41c.48.08.7.31.62.74s-.56.51-.82.51a3.43,3.43,0,0,1-.88-.06,1.92,1.92,0,0,1-.44-.46l-.1-.25s-.06-.08-.14-.08h-.45c-.08,0-.11,0-.11.08v1.4c0,.13.2.17.76.17h1.49a2.32,2.32,0,0,0,1.1-.26,1.62,1.62,0,0,0,.7-1.28c0-.72-.08-1.11-.49-1.36a5.16,5.16,0,0,0-1.59-.41c-.49-.08-.9-.16-.9-.58s.57-.51.82-.52a1.47,1.47,0,0,1,.58.07.64.64,0,0,1,.35.25,2.62,2.62,0,0,1,.19.37.16.16,0,0,0,.15.16h.4c.13,0,.16,0,.16-.16V8.39c0-.08-.51-.08-.76-.08H67.29a1.47,1.47,0,0,0-.91.33,1.63,1.63,0,0,0-.49,1.15A1.07,1.07,0,0,0,66.69,11Z" transform="translate(-1.14 -0.13)"/>
    <path d="M98.88,11a11.52,11.52,0,0,0,1.59.41c.49.08.7.31.62.74s-.56.51-.82.51a3.34,3.34,0,0,1-.87-.06,2.18,2.18,0,0,1-.45-.46l-.1-.25s0-.08-.14-.08h-.44c-.09,0-.12,0-.12.08v1.4c0,.13.2.17.75.17h1.49a2.32,2.32,0,0,0,1.1-.26,1.6,1.6,0,0,0,.7-1.28c0-.72-.07-1.11-.48-1.36a5.22,5.22,0,0,0-1.6-.41c-.49-.08-.89-.16-.89-.58s.56-.51.82-.52a1.47,1.47,0,0,1,.58.07.71.71,0,0,1,.35.25,2.3,2.3,0,0,1,.18.37.16.16,0,0,0,.16.16h.4c.12,0,.16,0,.15-.16V8.39c0-.08-.5-.08-.76-.08H99.47a1.49,1.49,0,0,0-.91.33,1.63,1.63,0,0,0-.48,1.15A1.07,1.07,0,0,0,98.88,11Z" transform="translate(-1.14 -0.13)"/>
    <path d="M125.53,11a11.67,11.67,0,0,0,1.6.41c.48.08.7.31.62.74s-.56.51-.82.51a3.34,3.34,0,0,1-.87-.06,1.79,1.79,0,0,1-.45-.46l-.1-.25s-.06-.08-.14-.08h-.45c-.08,0-.11,0-.11.08v1.4c0,.13.2.17.76.17h1.49a2.32,2.32,0,0,0,1.1-.26,1.62,1.62,0,0,0,.7-1.28c0-.72-.08-1.11-.49-1.36a5.16,5.16,0,0,0-1.59-.41c-.49-.08-.9-.16-.9-.58s.57-.51.82-.52a1.53,1.53,0,0,1,.59.07.66.66,0,0,1,.34.25,2.62,2.62,0,0,1,.19.37.16.16,0,0,0,.15.16h.4c.13,0,.16,0,.16-.16V8.39c0-.08-.51-.08-.76-.08h-1.64a1.47,1.47,0,0,0-.91.33,1.63,1.63,0,0,0-.49,1.15A1.07,1.07,0,0,0,125.53,11Z" transform="translate(-1.14 -0.13)"/>
    <path d="M78.33,13c0-.06-.1,0-.22-.06a.41.41,0,0,1-.19-.07l-.61-.44c.08-.15.15-.31.2-.42a3.67,3.67,0,0,0,.12-.94c0-.19,0-.53,0-.59a.26.26,0,0,0-.1,0h-.83a.18.18,0,0,0-.08,0s0,.13,0,.13,0,.28,0,.41a1.52,1.52,0,0,1-.14.69l-1.23-1a1.57,1.57,0,0,0,1.11-1.25c0-.84-.76-1.17-1.83-1.19s-2,.44-2,1.19a1.15,1.15,0,0,0,.16.58v0l0,0a1.37,1.37,0,0,0,.29.3,1.77,1.77,0,0,0-.85,1.43c0,1,.48,1.75,2.48,1.81a3.69,3.69,0,0,0,1.92-.45l.2.09a.46.46,0,0,0,.32.15h1.14c.09,0,.13,0,.13-.11v-.07A1,1,0,0,0,78.33,13ZM74.49,9c.47,0,.72.23.72.47s-.62.52-.77.52a.2.2,0,0,1-.1,0l-.22-.08c-.2-.1-.4-.26-.4-.42S74,8.93,74.49,9Zm.26,3.78c-1.11,0-1.28-.41-1.28-1a1,1,0,0,1,.36-.74l2,1.57A2.26,2.26,0,0,1,74.75,12.73Z" transform="translate(-1.14 -0.13)"/>
    <path d="M71.9,19.09a.12.12,0,0,0-.12-.12h-.31a.12.12,0,0,0-.12.12l-.08.19c0,.07-.08.11-.11.17s-1.52.06-1.52.06a.14.14,0,0,1-.08-.1v-1h1.18c.08,0,.15.09.17.22a0,0,0,0,0,0,0h.41s0,0,0,0V17.49s0,0,0,0h-.41a0,0,0,0,0,0,0c0,.12-.09.21-.17.21H69.56V17s.11,0,.11,0h1.1c.1,0,.31,0,.36.08a.59.59,0,0,1,0,.12.12.12,0,0,0,.12.12h.31a.12.12,0,0,0,.12-.12v-.71a.12.12,0,0,0-.12-.12H68.34a0,0,0,0,0,0,0v.47a0,0,0,0,0,0,0h0c.16,0,.37.12.37.21v2.32c0,.09-.21.18-.37.21h0a0,0,0,0,0,0,0v.47a0,0,0,0,0,0,0h3.45a.12.12,0,0,0,.12-.12Z" transform="translate(-1.14 -0.13)"/>
    <path d="M57.81,16.32H54.67a0,0,0,0,0,0,0v.47a0,0,0,0,0,0,0h0c.17,0,.38.12.38.21v2.32c0,.09-.21.18-.38.21h0a0,0,0,0,0,0,0v.47a0,0,0,0,0,0,0h1.6a0,0,0,0,0,0,0v-.47a0,0,0,0,0,0,0h0a.82.82,0,0,1-.3-.11l0,0h0v0h0a0,0,0,0,0,0,0h0s0,0,0,0v-1H57c.07,0,.14.09.16.22a0,0,0,0,0,0,0h.41a0,0,0,0,0,0,0V17.57a0,0,0,0,0,0,0h-.41a0,0,0,0,0,0,0c0,.13-.09.22-.16.22H55.89V17s.11,0,.11,0h1c.1,0,.31,0,.36.08a.59.59,0,0,1,0,.12.12.12,0,0,0,.12.12h.31a.12.12,0,0,0,.12-.12v-.71A.12.12,0,0,0,57.81,16.32Z" transform="translate(-1.14 -0.13)"/>
    <path d="M60.77,16.33a.1.1,0,0,0-.06,0,.27.27,0,0,0,0,.07" transform="translate(-1.14 -0.13)"/>
    <path d="M68.07,19.67a0,0,0,0,0,0,0h0c-.16,0-.37-.12-.37-.21l-.48-2.31c0-.1.09-.19.25-.22h0a0,0,0,0,0,0,0v-.47a0,0,0,0,0,0,0H66.24s-.13,0-.16,0-.08.13-.08.13l-.26.8a2.78,2.78,0,0,1-.2.52,2.38,2.38,0,0,1-.17-.49l-.25-.77a.65.65,0,0,0-.11-.18.38.38,0,0,0-.19,0h-1.2s0,0,0,0v.47s0,0,0,0h0c.16,0,.25.12.25.22l-.48,2.31c0,.09-.06.14-.14.14s-.1,0-.14-.14l-1.19-3,0-.07a.1.1,0,0,0-.06,0H60.77a.1.1,0,0,0-.06,0,.27.27,0,0,0,0,.07l-1.18,3c0,.09-.21.18-.38.21h0a0,0,0,0,0,0,0v.47a0,0,0,0,0,0,0h1.53a0,0,0,0,0,0,0v-.47a0,0,0,0,0,0,0h0c-.16,0-.33-.08-.3-.21l.24-.61H61.8l.24.61c.05.1-.06.18-.22.21h0a.1.1,0,0,0,0,0v.47a0,0,0,0,0,0,0h2.65s0,0,0,0v-.47a0,0,0,0,0,0,0h0c-.16,0-.2-.12-.2-.21l.22-1.63s0-.16,0-.16.1.25.1.25L64.93,19a1.65,1.65,0,0,0,.09.16.75.75,0,0,0,.19.09h.49a.23.23,0,0,0,.12-.05A.83.83,0,0,0,66,19l.36-1.25s0-.12.06-.12.07.17.07.17l.21,1.63c0,.09,0,.18-.19.21h0a.1.1,0,0,0,0,0v.47a0,0,0,0,0,0,0h1.61s0,0,0,0Zm-6.54-1.53s-.06,0-.06,0H60.9s0,0-.06,0,0-.06,0-.06l.33-.86.32.84S61.54,18.12,61.53,18.14Z" transform="translate(-1.14 -0.13)"/>
    <path d="M85.34,19.63h0c-.16,0-.37-.12-.37-.21l-1.19-3a.17.17,0,0,0,0-.07.1.1,0,0,0-.06,0H82.58a.1.1,0,0,0-.06,0,.27.27,0,0,0,0,.07l-1,2.56s-.2.49-.5.58a2.78,2.78,0,0,1-.67.09h0a1.27,1.27,0,0,1-.55-.09,1,1,0,0,1-.4-.46,2.19,2.19,0,0,1-.12-.89,2.08,2.08,0,0,1,.12-1,.84.84,0,0,1,.8-.41c.47,0,.64.17.72.29a.39.39,0,0,1,.14.25v0a.12.12,0,0,0,.12.12h.31a.13.13,0,0,0,.12-.12v-.93s0-.07-.07-.14a4.53,4.53,0,0,0-1.2-.12,2.75,2.75,0,0,0-1.39.3,1.83,1.83,0,0,0-.76,1.62c0,1,.22,1.34.48,1.59a1.66,1.66,0,0,0,1,.42,2.85,2.85,0,0,0,.49,0h.14a2.1,2.1,0,0,0,.36,0c.46,0,.71,0,.84,0h1s0,0,0,0v-.47s0,0,0,0h0c-.16,0-.32-.08-.3-.21l.24-.61h1.23l.24.61c.06.1-.06.18-.22.21h0s0,0,0,0v.47s0,0,0,0h1.69s0,0,0,0v-.47S85.35,19.65,85.34,19.63Zm-2-1.49s-.06,0-.06,0h-.57a.05.05,0,0,1,0,0s0-.06,0-.06l.33-.86.32.84S83.35,18.12,83.34,18.14Z" transform="translate(-1.14 -0.13)"/>
  </g>
</svg>
